<svg xmlns="http://www.w3.org/2000/svg" width="800" height="420" viewBox="0 0 800 420">
  <rect x="20" y="20" width="760" height="380" rx="24" fill="#ffffff" stroke="#94a3b8" stroke-opacity="0.5"/>
  <rect x="52" y="54" width="280" height="18" rx="9" fill="#dbeafe"/>
  <rect x="52" y="86" width="360" height="12" rx="6" fill="#e2e8f0"/>
  <rect x="52" y="108" width="320" height="12" rx="6" fill="#e2e8f0"/>
  <g>
    <circle cx="120" cy="220" r="34" fill="#93c5fd"/>
    <rect x="78" y="262" width="84" height="60" rx="22" fill="#bfdbfe"/>
    <circle cx="260" cy="220" r="34" fill="#a7f3d0"/>
    <rect x="218" y="262" width="84" height="60" rx="22" fill="#d1fae5"/>
    <circle cx="400" cy="220" r="34" fill="#fca5a5"/>
    <rect x="358" y="262" width="84" height="60" rx="22" fill="#fee2e2"/>
  </g>
  <rect x="500" y="140" width="240" height="10" rx="5" fill="#e2e8f0"/>
  <rect x="500" y="164" width="220" height="10" rx="5" fill="#e2e8f0"/>
  <rect x="500" y="188" width="200" height="10" rx="5" fill="#e2e8f0"/>
  <rect x="500" y="236" width="240" height="10" rx="5" fill="#e2e8f0"/>
  <rect x="500" y="260" width="210" height="10" rx="5" fill="#e2e8f0"/>
</svg>

